<?xml version="1.0" encoding="UTF-8" standalone="no"?>
<svg width="22px" height="22px" viewBox="0 0 22 22" version="1.1" xmlns="http://www.w3.org/2000/svg" xmlns:xlink="http://www.w3.org/1999/xlink">
    <!-- Generator: Sketch 42 (36781) - http://www.bohemiancoding.com/sketch -->
    <title>light</title>
    <desc>Created with Sketch.</desc>
    <defs>
        <linearGradient x1="50%" y1="0%" x2="50%" y2="100%" id="linearGradient-1">
            <stop stop-color="#FBDA61" offset="0%"></stop>
            <stop stop-color="#F76B1C" offset="100%"></stop>
        </linearGradient>
    </defs>
    <g id="Page-1" stroke="none" stroke-width="1" fill="none" fill-rule="evenodd">
        <g id="light" transform="translate(-1.000000, 0.000000)" fill-rule="nonzero" fill="url(#linearGradient-1)">
            <g id="Icons-new-Arranged-Names-Color">
                <g id="54-Sun">
                    <path d="M16.9519917,15.9551655 C17.3452387,15.5619186 17.978647,15.5676073 18.3728301,15.9617903 L19.773794,17.3627543 C20.1740276,17.7629878 20.1709431,18.3930684 19.7804188,18.7835927 C19.3871719,19.1768396 18.7537635,19.1711509 18.3595805,18.7769678 L16.9586165,17.3760039 C16.558383,16.9757704 16.5614674,16.3456898 16.9519917,15.9551655 Z M16.9519917,6.0511821 C16.5587447,5.6579352 16.5644334,5.0245268 16.9586165,4.63034375 L18.3595805,3.22937981 C18.759814,2.82914626 19.3898945,2.83223071 19.7804188,3.222755 C20.1736658,3.61600196 20.1679771,4.2494103 19.773794,4.64359337 L18.3728301,6.0445573 C17.9725965,6.4447909 17.342516,6.4417064 16.9519917,6.0511821 Z M12,22.0063477 C11.4438648,22.0063477 11,21.5544378 11,20.9969788 L11,19.0157166 C11,18.4497008 11.4477153,18.0063477 12,18.0063477 C12.5561352,18.0063477 13,18.4582575 13,19.0157166 L13,20.9969788 C13,21.5629945 12.5522847,22.0063477 12,22.0063477 Z M12,4 C11.4438648,4 11,3.54809015 11,2.9906311 L11,1.0093689 C11,0.44335318 11.4477153,0 12,0 C12.5561352,0 13,0.45190985 13,1.0093689 L13,2.9906311 C13,3.55664682 12.5522847,4 12,4 Z M4.21958117,18.7835927 C3.82633422,18.3903457 3.83202291,17.7569374 4.22620598,17.3627543 L5.62716992,15.9617903 C6.0274035,15.5615568 6.657484,15.5646412 7.0480083,15.9551655 C7.4412553,16.3484125 7.4355666,16.9818208 7.0413835,17.3760039 L5.64041954,18.7769678 C5.24018599,19.1772014 4.61010546,19.1741169 4.21958117,18.7835927 Z M19.0031738,11.0031738 C19.0031738,10.4470387 19.4550837,10.0031738 20.0125427,10.0031738 L21.9938049,10.0031738 C22.5598207,10.0031738 23.0031738,10.4508891 23.0031738,11.0031738 C23.0031738,11.559309 22.551264,12.0031738 21.9938049,12.0031738 L20.0125427,12.0031738 C19.446527,12.0031738 19.0031738,11.5554586 19.0031738,11.0031738 Z M0.99682617,11.0031738 C0.99682617,10.4470387 1.44873602,10.0031738 2.00619507,10.0031738 L3.98745728,10.0031738 C4.553473,10.0031738 4.99682617,10.4508891 4.99682617,11.0031738 C4.99682617,11.559309 4.54491632,12.0031738 3.98745728,12.0031738 L2.00619507,12.0031738 C1.44017935,12.0031738 0.99682617,11.5554586 0.99682617,11.0031738 Z M12,17 C8.6862913,17 6,14.3137087 6,11 C6,7.6862913 8.6862913,5 12,5 C15.3137087,5 18,7.6862913 18,11 C18,14.3137087 15.3137087,17 12,17 Z M4.21958117,3.222755 C4.61282813,2.82950804 5.24623647,2.83519674 5.64041954,3.22937981 L7.0413835,4.63034375 C7.441617,5.0305773 7.4385326,5.6606578 7.0480083,6.0511821 C6.6547613,6.4444291 6.021353,6.4387404 5.62716992,6.0445573 L4.22620598,4.64359337 C3.82597243,4.24335982 3.82905688,3.61327929 4.21958117,3.222755 Z" id="Oval-13"></path>
                </g>
            </g>
        </g>
    </g>
</svg>