<?xml version="1.0" encoding="UTF-8" standalone="no"?>
<svg width="150px" height="106px" viewBox="0 0 150 106" version="1.1" xmlns="http://www.w3.org/2000/svg" xmlns:xlink="http://www.w3.org/1999/xlink">
    <!-- Generator: Sketch 42 (36781) - http://www.bohemiancoding.com/sketch -->
    <title>1488938865_icon-ios7-people</title>
    <desc>Created with Sketch.</desc>
    <defs></defs>
    <g id="Page-1" stroke="none" stroke-width="1" fill="none" fill-rule="evenodd">
        <g id="1488938865_icon-ios7-people" fill-rule="nonzero">
            <g id="Group">
                <g transform="translate(28.441630, 0.000000)" id="Shape" fill="#595151">
                    <path d="M77.6958415,81.4262381 C73.9482384,80.0072822 67.8249228,79.5706804 65.1480635,78.4427924 C63.2742619,77.6423557 60.296256,76.8055356 59.3593552,75.5321136 C58.3889937,74.2950751 58.3889937,65.3083545 58.3889937,65.3083545 C58.3889937,65.3083545 60.7312456,62.943428 61.7016071,60.2874337 C62.6719686,57.6314393 63.3077227,50.4275094 63.3077227,50.4275094 C63.3077227,50.4275094 63.5084871,50.5002764 63.8096338,50.5002764 C64.5123094,50.5002764 65.7838176,49.9909076 66.3861109,46.643627 C67.1222472,42.5322933 68.5275983,40.3856677 68.1595302,37.3658385 C67.8918443,35.3283634 67.0887865,35.000912 66.6203361,35.000912 C66.3861109,35.000912 66.2188072,35.073679 66.2188072,35.073679 C66.2188072,35.073679 68.1260694,32.0174663 68.1260694,21.6117897 C68.1260694,10.9150453 60.5304812,0.363834844 46.5104305,0.32745136 C32.4569191,0.363834844 24.8947916,10.9150453 24.8947916,21.6117897 C24.8947916,31.9810828 26.8020538,35.073679 26.8020538,35.073679 C26.8020538,35.073679 26.6347501,35.000912 26.4005249,35.000912 C25.8986138,35.000912 25.095556,35.3283634 24.8613308,37.3658385 C24.4932627,40.3856677 25.8651531,42.5686768 26.6347501,46.643627 C27.2370435,49.9909076 28.5085517,50.5002764 29.2112272,50.5002764 C29.5123739,50.5002764 29.7131383,50.4275094 29.7131383,50.4275094 C29.7131383,50.4275094 30.3488924,57.6678228 31.3192539,60.2874337 C32.2896154,62.943428 34.6318673,65.3083545 34.6318673,65.3083545 C34.6318673,65.3083545 34.6318673,74.2950751 33.6615058,75.5321136 C32.6911443,76.7691521 29.7465991,77.6423557 27.8727976,78.4427924 C25.1959383,79.5706804 19.0726226,80.0072822 15.3250196,81.4262381 C11.5774165,82.845194 0,88.7757019 0,105.14827 L93.020861,105.14827 C93.020861,88.7757019 81.4769053,82.845194 77.6958415,81.4262381 Z"></path>
                </g>
                <path d="M37.5094911,76.7691521 C40.5209578,75.1318953 43.4655031,75.1318953 45.7408335,74.8044439 C45.7408335,74.8044439 47.0123416,72.5486679 42.829749,71.7482312 C42.829749,71.7482312 37.1079622,70.1837414 36.4387474,69.3105378 C35.7695325,68.4373342 36.1710614,63.5983307 36.1710614,63.5983307 C36.1710614,63.5983307 44.1681786,63.3072629 47.3469491,60.2510502 C42.1605341,51.8100818 44.9377757,41.9501575 43.8670319,32.745136 C42.829749,23.5764979 37.777177,17.8279074 28.1070228,17.8279074 C28.073562,17.8279074 28.1070228,17.8279074 27.7724153,17.8279074 L27.7724153,17.8279074 C18.4034078,17.8279074 13.585061,23.5764979 12.5143173,32.7815194 C11.4435736,41.986541 14.5219618,52.9379698 9.20170388,60.3238171 C12.1797099,63.1981124 19.541073,63.3436463 20.3775915,63.3436463 L20.444513,63.3436463 L20.4779737,63.3072629 C20.4779737,63.3072629 20.8125811,68.4737176 20.1433663,69.3469213 C19.4741515,70.2201249 17.4999677,71.0205616 16.1615381,71.3480129 C13.2169928,72.0392991 10.1051439,73.1671871 7.52866681,74.1495412 C4.95218972,75.0955118 0,80.7713354 0,87.6841974 L26.8355146,87.6841974 C27.5716509,84.7735187 32.6242228,79.4615299 37.5094911,76.7691521 Z" id="Shape" fill="#514949"></path>
                <path d="M123.068607,87.6841974 L149.904121,87.6841974 C149.904121,80.7713354 144.951932,75.0955118 142.375455,74.1131577 C139.798977,73.1308036 136.653668,72.0029156 133.742583,71.3116294 C132.370693,70.9841781 130.42997,70.1837414 129.760755,69.3105378 C129.09154,68.4373342 129.426148,63.2708794 129.426148,63.2708794 L129.459608,63.3072629 L129.52653,63.3072629 C130.363048,63.3072629 137.757872,63.1981124 140.735878,60.2874337 C135.41562,52.9015863 138.460548,41.9501575 137.389804,32.745136 C136.31906,23.5764979 131.500714,17.8279074 122.131706,17.8279074 L122.131706,17.8279074 L121.797099,17.8279074 C112.126944,17.8279074 107.040912,23.5764979 106.003629,32.7815194 C104.932885,41.986541 107.710126,51.8464653 102.523712,60.2874337 C105.702482,63.3436463 113.699599,63.6347142 113.699599,63.6347142 C113.699599,63.6347142 114.101128,68.4737176 113.431913,69.3469213 C112.762698,70.2201249 107.040912,71.7846147 107.040912,71.7846147 C102.858319,72.5850514 104.129827,74.8408274 104.129827,74.8408274 C106.405158,75.1682788 109.383164,75.1682788 112.36117,76.8055356 C117.279899,79.4615299 122.33247,84.7735187 123.068607,87.6841974 Z" id="Shape" fill="#514949"></path>
            </g>
        </g>
    </g>
</svg>